FFmpeg version SVN-r25716, Copyright (c) 2000-2010 the FFmpeg developers  built on Nov 10 2010 12:23:18 with gcc 4.1.2 20080704 (Red Hat 4.1.2-48)  configuration: --enable-libmp3lame --enable-shared --disable-mmx --arch=x86_64  libavutil     50.33. 0 / 50.33. 0  libavcore      0.12. 1 /  0.12. 1  libavcodec    52.94. 4 / 52.94. 4  libavformat   52.84. 0 / 52.84. 0  libavdevice   52. 2. 2 / 52. 2. 2  libavfilter    1.59. 0 /  1.59. 0  libswscale     0.12. 0 /  0.12. 0Seems stream 0 codec frame rate differs from container frame rate: 1000.00 (1000/1) -> 12.00 (12/1)Input #0, mov,mp4,m4a,3gp,3g2,mj2, from '/RAID10/data/converted_video_files/12027.mov':  Metadata:    major_brand     : qt      minor_version   : 537199360    compatible_brands: qt    Duration: 00:00:12.50, start: 0.000000, bitrate: 15551 kb/s    Stream #0.0(eng): Video: mpeg4, yuv420p, 678x518 [PAR 1:1 DAR 339:259], 15550 kb/s, 12 fps, 12 tbr, 600 tbn, 1k tbc[buffer @ 0xe778af0] w:678 h:518 pixfmt:yuv420pOutput #0, flv, to '/RAID10/data/converted_video_files/12027.flv':  Metadata:    encoder         : Lavf52.84.0    Stream #0.0(eng): Video: flv, yuv420p, 678x518 [PAR 1:1 DAR 339:259], q=2-31, 600 kb/s, 1k tbn, 24 tbcStream mapping:  Stream #0.0 -> #0.0Press [q] to stop encodingframe=   17 fps=  0 q=31.0 size=     769kB time=1.37 bitrate=4587.5kbits/s    frame=   40 fps= 38 q=31.0 size=     915kB time=3.29 bitrate=2278.1kbits/s    frame=   69 fps= 44 q=31.0 size=    1101kB time=5.71 bitrate=1580.4kbits/s    frame=   96 fps= 46 q=31.0 size=    1277kB time=7.96 bitrate=1314.0kbits/s    frame=  120 fps= 46 q=31.0 size=    1433kB time=9.96 bitrate=1178.9kbits/s    frame=  142 fps= 46 q=31.0 size=    1572kB time=11.79 bitrate=1092.0kbits/s    frame=  150 fps= 46 q=31.0 Lsize=    1626kB time=12.46 bitrate=1069.4kbits/s    video:1624kB audio:0kB global headers:0kB muxing overhead 0.156954%